General
Complete name                    : Linkin Park - Points of Authority [LIVE] [HQ] Anky.avi
Format                           : AVI
Format/Info                      : Audio Video Interleave
File size                        : 91.7 MiB
Duration                         : 3mn 30s
Overall bit rate                 : 3 660 Kbps
Writing application              : VirtualDubMod 1.4.13
Writing library                  : VirtualDub build 14328/release

Video
ID                               : 0
Format                           : MPEG-4 Visual
Format profile                   : AdvancedSimple@L3
Format settings, BVOP            : No
Format settings, QPel            : No
Format settings, GMC             : 2 warppoints
Format settings, Matrix          : Default (H.263)
Codec ID                         : XVID
Codec ID/Hint                    : XviD
Duration                         : 3mn 30s
Bit rate                         : 3 328 Kbps
Width                            : 640 pixels
Height                           : 348 pixels
Display aspect ratio             : 16:9
Frame rate                       : 29.970 fps
Resolution                       : 24 bits
Colorimetry                      : 4:2:0
Scan type                        : Progressive
Bits/(Pixel*Frame)               : 0.499
Stream size                      : 83.4 MiB (91%)
Writing library                  : XviD 0.0.09 (UTC 2003-03-25)

Audio
ID                               : 1
Format                           : MPEG Audio
Format version                   : Version 1
Format profile                   : Layer 3
Codec ID                         : 55
Codec ID/Hint                    : MP3
Duration                         : 3mn 30s
Bit rate mode                    : Constant
Bit rate                         : 320 Kbps
Channel(s)                       : 2 channels
Sampling rate                    : 48.0 KHz
Resolution                       : 16 bits
Stream size                      : 8.02 MiB (9%)




[img]http://img.sceper.eu/images/vlcsnawdw.png[/img]